{
	"asset":{
		"generator":"Khronos glTF Blender I/O v5.1.20",
		"version":"2.0"
	},
	"scene":0,
	"scenes":[
		{
			"name":"Scene",
			"nodes":[
				0
			]
		}
	],
	"nodes":[
		{
			"mesh":0,
			"name":"voidcleaver_axe"
		}
	],
	"materials":[
		{
			"doubleSided":true,
			"name":"voidcleaver",
			"pbrMetallicRoughness":{
				"baseColorTexture":{
					"index":0
				},
				"metallicFactor":0,
				"roughnessFactor":0.5
			}
		}
	],
	"meshes":[
		{
			"name":"voidcleaver_axe",
			"primitives":[
				{
					"attributes":{
						"POSITION":0,
						"NORMAL":1,
						"TEXCOORD_0":2
					},
					"indices":3,
					"material":0
				}
			]
		}
	],
	"textures":[
		{
			"sampler":0,
			"source":0
		}
	],
	"images":[
		{
			"mimeType":"image/png",
			"name":"voidcleaver_axe_texture",
			"uri":"voidcleaver_axe_texture.png"
		}
	],
	"accessors":[
		{
			"bufferView":0,
			"componentType":5126,
			"count":890,
			"max":[
				0.47999998927116394,
				2.240000009536743,
				0.11100000143051147
			],
			"min":[
				-0.41999998688697815,
				-0.28999999165534973,
				-0.11100000143051147
			],
			"type":"VEC3"
		},
		{
			"bufferView":1,
			"componentType":5126,
			"count":890,
			"type":"VEC3"
		},
		{
			"bufferView":2,
			"componentType":5126,
			"count":890,
			"type":"VEC2"
		},
		{
			"bufferView":3,
			"componentType":5123,
			"count":1302,
			"type":"SCALAR"
		}
	],
	"bufferViews":[
		{
			"buffer":0,
			"byteLength":10680,
			"byteOffset":0,
			"target":34962
		},
		{
			"buffer":0,
			"byteLength":10680,
			"byteOffset":10680,
			"target":34962
		},
		{
			"buffer":0,
			"byteLength":7120,
			"byteOffset":21360,
			"target":34962
		},
		{
			"buffer":0,
			"byteLength":2604,
			"byteOffset":28480,
			"target":34963
		}
	],
	"samplers":[
		{
			"magFilter":9729,
			"minFilter":9987
		}
	],
	"buffers":[
		{
			"byteLength":31084,
			"uri":"voidcleaver_axe.bin"
		}
	]
}
